<svg xmlns="http://www.w3.org/2000/svg" viewBox="0 0 512.002 512.002"><path d="M213.334 452.268h85.333c18.851 0 34.133 15.282 34.133 34.133H179.201c0-18.851 15.282-34.133 34.133-34.133z" fill="#e3e7f2"/><path d="M324.268 452.268h-25.6c18.851 0 34.133 15.282 34.133 34.133h25.6c0-18.851-15.282-34.133-34.133-34.133z" fill="#7facfa"/><path d="M213.334 452.268h-25.6c-18.851 0-34.133 15.282-34.133 34.133h25.6c0-18.851 15.282-34.133 34.133-34.133z" fill="#fff"/><path fill="#e3e7f2" d="M290.134 452.268h-68.266l9.753-68.267h48.76z"/><path fill="#fff" d="M213.334 384.001l-17.066 68.267h25.6l9.753-68.267z"/><path fill="#7facfa" d="M298.668 384.001h-18.287l9.753 68.267h25.6z"/><path fill="#d3dff2" d="M223.116 25.601L34.134 106.397V25.601z"/><path fill="#d3dff2" d="M256.962 25.601L34.134 120.867v-14.47l188.982-80.796z"/><path fill="#d3dff2" d="M256.996 25.601l-222.862 95.28v-.014l222.828-95.266z"/><path fill="#d4e0f2" d="M257.03 25.601L34.134 120.896v-.015l222.862-95.28z"/><path fill="#d5e0f2" d="M257.064 25.601l-222.93 95.31v-.015L257.03 25.601z"/><path fill="#d7e1f2" d="M257.098 25.601L34.134 120.925v-.014l222.93-95.31z"/><path fill="#d8e1f2" d="M257.133 25.601L34.134 120.94v-.015l222.964-95.324z"/><path fill="#d9e2f2" d="M257.167 25.601L34.134 120.954v-.014l222.999-95.339z"/><path fill="#dae2f2" d="M257.201 25.601L34.134 120.969v-.015l223.033-95.353z"/><path fill="#dae2f2" d="M257.236 25.601L34.134 120.984v-.015l223.067-95.368z"/><path fill="#dbe3f2" d="M257.271 25.601L34.134 120.999v-.015l223.102-95.383z"/><path fill="#dce3f2" d="M257.306 25.601L34.134 121.014v-.015l223.137-95.398z"/><path fill="#dde4f2" d="M257.342 25.601L34.134 121.029v-.015l223.172-95.413z"/><path fill="#dee4f2" d="M257.377 25.601L34.134 121.044v-.015l223.208-95.428z"/><path fill="#dfe5f2" d="M257.412 25.601L34.134 121.059v-.015l223.243-95.443z"/><path fill="#e0e5f2" d="M257.447 25.601L34.134 121.074v-.015l223.278-95.458z"/><path fill="#e1e6f2" d="M257.482 25.601L34.134 121.089v-.015l223.313-95.473z"/><path fill="#e3e6f2" d="M257.517 25.601L34.134 121.104v-.015l223.348-95.488z"/><path fill="#e4e7f2" d="M257.553 25.601L34.134 121.119v-.015l223.383-95.503z"/><path fill="#e5e7f2" d="M257.588 25.601L34.134 121.134v-.015l223.419-95.518z"/><path fill="#e6e8f2" d="M257.623 25.601L34.134 121.149v-.015l223.454-95.533z"/><path fill="#e7e8f2" d="M257.658 25.601L34.134 121.164v-.015l223.489-95.548z"/><path fill="#e8e9f2" d="M257.693 25.601L34.134 121.179v-.015l223.524-95.563z"/><path fill="#e9e9f2" d="M257.728 25.601L34.134 121.195v-.016l223.559-95.578z"/><path fill="#eaeaf2" d="M257.764 25.601L34.134 121.21v-.015l223.594-95.594z"/><path fill="#ebeaf2" d="M257.799 25.601L34.134 121.225v-.015l223.63-95.609zM257.875 25.601L34.134 121.257v-.032l223.665-95.624z"/><path fill="#ecebf2" d="M257.951 25.601L34.134 121.29v-.033l223.741-95.656z"/><path fill="#edebf2" d="M258.027 25.601L34.134 121.322v-.032l223.817-95.689z"/><path fill="#eeecf2" d="M258.103 25.601L34.134 121.355v-.033l223.893-95.721z"/><path fill="#efecf2" d="M258.179 25.601L34.134 121.387v-.032l223.969-95.754z"/><path fill="#f1edf2" d="M258.255 25.601L34.134 121.42v-.033l224.045-95.786z"/><path fill="#f2edf2" d="M258.332 25.601L34.134 121.452v-.032l224.121-95.819z"/><path fill="#f3eef2" d="M258.408 25.601L34.134 121.485v-.033l224.198-95.851z"/><path fill="#f4eef2" d="M258.484 25.601l-224.35 95.916v-.032l224.274-95.884z"/><path fill="#f5eff2" d="M258.56 25.601L34.134 121.55v-.033l224.35-95.916z"/><path fill="#f6eff2" d="M258.636 25.601L34.134 121.583v-.033L258.56 25.601z"/><path fill="#f6eff2" d="M258.79 25.601L34.134 121.648v-.065l224.502-95.982z"/><path fill="#f7f0f2" d="M258.944 25.601l-224.81 96.113v-.066L258.79 25.601z"/><path fill="#f8f0f2" d="M259.097 25.601L34.134 121.78v-.066l224.81-96.113z"/><path fill="#faf1f2" d="M259.251 25.601L34.134 121.845v-.065l224.963-96.179z"/><path fill="#fbf1f2" d="M259.405 25.601l-225.271 96.31v-.066l225.117-96.244z"/><path fill="#fcf2f2" d="M259.559 25.601L34.134 121.977v-.066l225.271-96.31z"/><path fill="#fdf2f2" d="M259.712 25.601L34.134 122.043v-.066l225.425-96.376z"/><path fill="#fdf2f2" d="M261.327 25.601L34.134 122.733v-.69l225.578-96.442z"/><path fill="#fff3f2" d="M262.941 25.601L34.134 123.423v-.69l227.193-97.132z"/><path fill="#fff3f2" d="M319.39 25.601L34.134 147.557v-24.134l228.807-97.822z"/><path fill="#fff3f2" d="M328.718 25.601L34.134 151.545v-3.988L319.39 25.601zM328.718 25.601L34.134 151.545z"/><path fill="#fef3f2" d="M328.718 25.601L34.134 151.545z"/><path fill="#fdf2f2" d="M328.718 25.601L34.134 151.545z"/><path fill="#fcf2f2" d="M328.718 25.601L34.134 151.545z"/><path fill="#fbf1f2" d="M328.718 25.601L34.134 151.545z"/><path fill="#faf1f2" d="M328.718 25.601L34.134 151.545z"/><path fill="#f9f0f2" d="M328.718 25.601L34.134 151.545z"/><path fill="#f8f0f2" d="M328.718 25.601L34.134 151.545z"/><path fill="#f7eff2" d="M328.718 25.601L34.134 151.545z"/><path fill="#f6eff2" d="M328.718 25.601L34.134 151.545z"/><path fill="#f5eef2" d="M328.718 25.601L34.134 151.545z"/><path fill="#f4eef2" d="M328.718 25.601L34.134 151.545z"/><path fill="#f3edf2" d="M328.718 25.601L34.134 151.545z"/><path fill="#f2edf2" d="M328.718 25.601L34.134 151.545z"/><path fill="#f1ecf2" d="M328.718 25.601L34.134 151.545z"/><path fill="#f0ecf2" d="M328.718 25.601L34.134 151.545z"/><path fill="#efecf2" d="M328.718 25.601L34.134 151.545z"/><path fill="#eeebf2" d="M328.718 25.601L34.134 151.545z"/><path fill="#edebf2" d="M328.718 25.601L34.134 151.545z"/><path fill="#eceaf2" d="M328.718 25.601L34.134 151.545z"/><path fill="#ebeaf2" d="M328.718 25.601L34.134 151.545z"/><path fill="#eae9f2" d="M328.718 25.601L34.134 151.545z"/><path fill="#e8e9f2" d="M328.718 25.601L34.134 151.545z"/><path fill="#e7e8f2" d="M328.718 25.601L34.134 151.545z"/><path fill="#e6e8f2" d="M328.718 25.601L34.134 151.545z"/><path fill="#e5e7f2" d="M328.718 25.601L34.134 151.545z"/><path fill="#e4e7f2" d="M328.718 25.601L34.134 151.545z"/><path fill="#e3e6f2" d="M328.718 25.601L34.134 151.545z"/><path fill="#e2e6f2" d="M328.718 25.601L34.134 151.545z"/><path fill="#e1e6f2" d="M328.718 25.601L34.134 151.545z"/><path fill="#e0e5f2" d="M328.718 25.601L34.134 151.545z"/><path fill="#dfe5f2" d="M328.718 25.601L34.134 151.545z"/><path fill="#dee4f2" d="M328.718 25.601L34.134 151.545z"/><path fill="#dde4f2" d="M328.718 25.601L34.134 151.545z"/><path fill="#dce3f2" d="M328.718 25.601L34.134 151.545z"/><path fill="#dbe3f2" d="M328.718 25.601L34.134 151.545z"/><path fill="#dae2f2" d="M328.718 25.601L34.134 151.545z"/><path fill="#d9e2f2" d="M328.718 25.601L34.134 151.545z"/><path fill="#d8e1f2" d="M328.718 25.601L34.134 151.545z"/><path fill="#d7e1f2" d="M328.718 25.601L34.134 151.545z"/><path fill="#d6e0f2" d="M328.718 25.601L34.134 151.545z"/><path fill="#d5e0f2" d="M328.718 25.601L34.134 151.545z"/><path fill="#d4dff2" d="M328.718 25.601L34.134 151.545z"/><path fill="#d3dff2" d="M328.718 25.601L34.134 151.545zM477.868 32.088L34.134 221.798v-70.253L328.718 25.601h149.15z"/><path fill="#d3dff2" d="M477.868 43.643L34.134 233.353v-11.555l443.734-189.71z"/><path fill="#d3dff2" d="M477.868 43.658L34.134 233.368v-.015l443.734-189.71z"/><path fill="#d4e0f2" d="M477.868 43.673L34.134 233.383v-.015l443.734-189.71z"/><path fill="#d5e0f2" d="M477.868 43.687L34.134 233.397v-.014l443.734-189.71z"/><path fill="#d7e1f2" d="M477.868 43.702L34.134 233.412v-.015l443.734-189.71z"/><path fill="#d8e1f2" d="M477.868 43.716L34.134 233.426v-.014l443.734-189.71z"/><path fill="#d9e2f2" d="M477.868 43.731L34.134 233.441v-.015l443.734-189.71z"/><path fill="#dae2f2" d="M477.868 43.746L34.134 233.456v-.015l443.734-189.71zM477.868 43.761L34.134 233.471v-.015l443.734-189.71z"/><path fill="#dbe3f2" d="M477.868 43.776L34.134 233.486v-.015l443.734-189.71z"/><path fill="#dce3f2" d="M477.868 43.791L34.134 233.501v-.015l443.734-189.71z"/><path fill="#dde4f2" d="M477.868 43.806L34.134 233.516v-.015l443.734-189.71z"/><path fill="#dee4f2" d="M477.868 43.821L34.134 233.531v-.015l443.734-189.71z"/><path fill="#dfe5f2" d="M477.868 43.836L34.134 233.546v-.015l443.734-189.71z"/><path fill="#e0e5f2" d="M477.868 43.851L34.134 233.561v-.015l443.734-189.71z"/><path fill="#e1e6f2" d="M477.868 43.866L34.134 233.576v-.015l443.734-189.71z"/><path fill="#e3e6f2" d="M477.868 43.881L34.134 233.591v-.015l443.734-189.71z"/><path fill="#e4e7f2" d="M477.868 43.896L34.134 233.606v-.015l443.734-189.71z"/><path fill="#e5e7f2" d="M477.868 43.911L34.134 233.621v-.015l443.734-189.71z"/><path fill="#e6e8f2" d="M477.868 43.926L34.134 233.636v-.015l443.734-189.71z"/><path fill="#e7e8f2" d="M477.868 43.941L34.134 233.651v-.015l443.734-189.71z"/><path fill="#e8e9f2" d="M477.868 43.956L34.134 233.666v-.015l443.734-189.71z"/><path fill="#e9e9f2" d="M477.868 43.971L34.134 233.681v-.015l443.734-189.71z"/><path fill="#eaeaf2" d="M477.868 43.986L34.134 233.696v-.015l443.734-189.71z"/><path fill="#ebeaf2" d="M477.868 44.001L34.134 233.711v-.015l443.734-189.71z"/><path fill="#ebeaf2" d="M477.868 44.034L34.134 233.744v-.033l443.734-189.71z"/><path fill="#ecebf2" d="M477.868 44.066L34.134 233.776v-.032l443.734-189.71z"/><path fill="#edebf2" d="M477.868 44.099L34.134 233.809v-.033l443.734-189.71z"/><path fill="#eeecf2" d="M477.868 44.131L34.134 233.841v-.032l443.734-189.71z"/><path fill="#efecf2" d="M477.868 44.164L34.134 233.874v-.033l443.734-189.71z"/><path fill="#f1edf2" d="M477.868 44.196L34.134 233.906v-.032l443.734-189.71z"/><path fill="#f2edf2" d="M477.868 44.229L34.134 233.939v-.033l443.734-189.71z"/><path fill="#f3eef2" d="M477.868 44.262L34.134 233.972v-.033l443.734-189.71z"/><path fill="#f4eef2" d="M477.868 44.294L34.134 234.004v-.032l443.734-189.71z"/><path fill="#f5eff2" d="M477.868 44.327L34.134 234.037v-.033l443.734-189.71z"/><path fill="#f6eff2" d="M477.868 44.359L34.134 234.069v-.032l443.734-189.71z"/><path fill="#f6eff2" d="M477.868 44.425L34.134 234.135v-.066l443.734-189.71z"/><path fill="#f7f0f2" d="M477.868 44.491L34.134 234.201v-.066l443.734-189.71z"/><path fill="#f8f0f2" d="M477.868 44.556L34.134 234.266v-.065l443.734-189.71z"/><path fill="#faf1f2" d="M477.868 44.622L34.134 234.332v-.066l443.734-189.71z"/><path fill="#fbf1f2" d="M477.868 44.688L34.134 234.398v-.066l443.734-189.71z"/><path fill="#fcf2f2" d="M477.868 44.754L34.134 234.464v-.066l443.734-189.71z"/><path fill="#fdf2f2" d="M477.868 44.819L34.134 234.529v-.065l443.734-189.71z"/><path fill="#fdf2f2" d="M477.868 45.51L34.134 235.22v-.691l443.734-189.71z"/><path fill="#fff3f2" d="M477.868 46.2L34.134 235.91v-.69L477.868 45.51z"/><path fill="#fff3f2" d="M477.868 79.128L34.134 268.838V235.91L477.868 46.2z"/><path fill="#fff3f2" d="M477.868 84.548L34.134 274.258v-5.42l443.734-189.71zM477.868 84.548L34.134 274.258z"/><path fill="#fef3f2" d="M477.868 84.548L34.134 274.258z"/><path fill="#fdf2f2" d="M477.868 84.548L34.134 274.258z"/><path fill="#fcf2f2" d="M477.868 84.548L34.134 274.258z"/><path fill="#faf1f2" d="M477.868 84.548L34.134 274.258z"/><path fill="#f9f1f2" d="M477.868 84.548L34.134 274.258z"/><path fill="#f8f0f2" d="M477.868 84.548L34.134 274.258zM477.868 84.551L34.134 274.261v-.003l443.734-189.71z"/><path fill="#f7f0f2" d="M477.868 84.554L34.134 274.264v-.003l443.734-189.71z"/><path fill="#f6eff2" d="M477.868 84.557L34.134 274.267v-.003l443.734-189.71z"/><path fill="#f5eff2" d="M477.868 84.56L34.134 274.27v-.003l443.734-189.71z"/><path fill="#f4eef2" d="M477.868 84.563L34.134 274.273v-.003L477.868 84.56z"/><path fill="#f3eef2" d="M477.868 84.566L34.134 274.276v-.003l443.734-189.71z"/><path fill="#f2edf2" d="M477.868 84.569L34.134 274.279v-.003l443.734-189.71z"/><path fill="#f1edf2" d="M477.868 84.572L34.134 274.282v-.003l443.734-189.71z"/><path fill="#f0ecf2" d="M477.868 84.575L34.134 274.285v-.003l443.734-189.71z"/><path fill="#eeecf2" d="M477.868 84.578L34.134 274.288v-.003l443.734-189.71z"/><path fill="#edebf2" d="M477.868 84.581L34.134 274.291v-.003l443.734-189.71z"/><path fill="#ecebf2" d="M477.868 84.584L34.134 274.294v-.003l443.734-189.71z"/><path fill="#ebeaf2" d="M477.868 84.587L34.134 274.297v-.003l443.734-189.71z"/><path fill="#eaeaf2" d="M477.868 84.59L34.134 274.3v-.003l443.734-189.71z"/><path fill="#e9e9f2" d="M477.868 84.593L34.134 274.303v-.003L477.868 84.59z"/><path fill="#e8e9f2" d="M477.868 84.596L34.134 274.306v-.003l443.734-189.71z"/><path fill="#e7e8f2" d="M477.868 84.599L34.134 274.309v-.003l443.734-189.71z"/><path fill="#e7e8f2" d="M477.868 84.608L34.134 274.318v-.009l443.734-189.71z"/><path fill="#e6e8f2" d="M477.868 84.617L34.134 274.327v-.009l443.734-189.71z"/><path fill="#e5e7f2" d="M477.868 84.627L34.134 274.337v-.01l443.734-189.71z"/><path fill="#e4e7f2" d="M477.868 84.636L34.134 274.346v-.009l443.734-189.71z"/><path fill="#e3e6f2" d="M477.868 84.645L34.134 274.355v-.009l443.734-189.71z"/><path fill="#e2e6f2" d="M477.868 84.654L34.134 274.364v-.009l443.734-189.71z"/><path fill="#e0e5f2" d="M477.868 84.664L34.134 274.374v-.01l443.734-189.71z"/><path fill="#dfe5f2" d="M477.868 84.673L34.134 274.383v-.009l443.734-189.71z"/><path fill="#dee4f2" d="M477.868 84.682L34.134 274.392v-.009l443.734-189.71z"/><path fill="#dde4f2" d="M477.868 84.692L34.134 274.402v-.01l443.734-189.71z"/><path fill="#dce3f2" d="M477.868 84.701L34.134 274.411v-.009l443.734-189.71z"/><path fill="#dce3f2" d="M477.868 84.716L34.134 274.426v-.015l443.734-189.71z"/><path fill="#dbe3f2" d="M477.868 84.73L34.134 274.44v-.014l443.734-189.71z"/><path fill="#dae2f2" d="M477.868 84.745L34.134 274.455v-.015L477.868 84.73z"/><path fill="#d9e2f2" d="M477.868 84.759L34.134 274.469v-.014l443.734-189.71z"/><path fill="#d7e1f2" d="M477.868 84.774L34.134 274.484v-.015l443.734-189.71z"/><path fill="#d6e1f2" d="M477.868 84.789L34.134 274.499v-.015l443.734-189.71z"/><path fill="#d5e0f2" d="M477.868 84.803L34.134 274.513v-.014l443.734-189.71zM477.868 84.931L34.134 274.641v-.128l443.734-189.71z"/><path fill="#d3dff2" d="M477.868 85.059L34.134 274.769v-.128l443.734-189.71z"/><path fill="#d3dff2" d="M477.868 189.978L183.721 315.735H34.134v-40.966l443.734-189.71z"/><path fill="#d3dff2" d="M477.868 207.26L224.144 315.735h-40.423l294.147-125.757z"/><path fill="#d3dff2" d="M477.868 207.272L224.171 315.735h-.027L477.868 207.26z"/><path fill="#d4dff2" d="M477.868 207.283l-253.67 108.452h-.027l253.697-108.463z"/><path fill="#d5e0f2" d="M477.868 207.295l-253.642 108.44h-.028l253.67-108.452z"/><path fill="#d6e0f2" d="M477.868 207.307L224.253 315.735h-.027l253.642-108.44z"/><path fill="#d7e1f2" d="M477.868 207.318L224.28 315.735h-.027l253.615-108.428z"/><path fill="#d8e1f2" d="M477.868 207.33L224.307 315.735h-.027l253.588-108.417z"/><path fill="#d9e2f2" d="M477.868 207.342L224.334 315.735h-.027L477.868 207.33z"/><path fill="#dae2f2" d="M477.868 207.353L224.362 315.735h-.028l253.534-108.393z"/><path fill="#dbe3f2" d="M477.868 207.365l-253.479 108.37h-.027l253.506-108.382z"/><path fill="#dce3f2" d="M477.868 207.376L224.416 315.735h-.027l253.479-108.37z"/><path fill="#dde4f2" d="M477.868 207.388L224.443 315.735h-.027l253.452-108.359z"/><path fill="#dee4f2" d="M477.868 207.4L224.47 315.735h-.027l253.425-108.347z"/><path fill="#dfe5f2" d="M477.868 207.411L224.497 315.735h-.027L477.868 207.4z"/><path fill="#e0e5f2" d="M477.868 207.423L224.525 315.735h-.028l253.371-108.324z"/><path fill="#e1e6f2" d="M477.868 207.435l-253.316 108.3h-.027l253.343-108.312z"/><path fill="#e2e6f2" d="M477.868 207.446L224.579 315.735h-.027l253.316-108.3z"/><path fill="#e3e6f2" d="M477.868 207.458L224.606 315.735h-.027l253.289-108.289z"/><path fill="#e4e7f2" d="M477.868 207.469L224.633 315.735h-.027l253.262-108.277z"/><path fill="#e5e7f2" d="M477.868 207.481L224.661 315.735h-.028l253.235-108.266z"/><path fill="#e6e8f2" d="M477.868 207.493l-253.18 108.242h-.027l253.207-108.254z"/><path fill="#e7e8f2" d="M477.868 207.504L224.715 315.735h-.027l253.18-108.242z"/><path fill="#e8e9f2" d="M477.868 207.516L224.742 315.735h-.027l253.153-108.231z"/><path fill="#eae9f2" d="M477.868 207.528L224.769 315.735h-.027l253.126-108.219z"/><path fill="#ebeaf2" d="M477.868 207.539L224.796 315.735h-.027l253.099-108.207z"/><path fill="#eceaf2" d="M477.868 207.551L224.824 315.735h-.028l253.072-108.196z"/><path fill="#edebf2" d="M477.868 207.562L224.851 315.735h-.027l253.044-108.184z"/><path fill="#eeebf2" d="M477.868 207.574l-252.99 108.161h-.027l253.017-108.173z"/><path fill="#efecf2" d="M477.868 207.586L224.905 315.735h-.027l252.99-108.161z"/><path fill="#f0ecf2" d="M477.868 207.597L224.932 315.735h-.027l252.963-108.149z"/><path fill="#f1ecf2" d="M477.868 207.609L224.96 315.735h-.028l252.936-108.138z"/><path fill="#f2edf2" d="M477.868 207.62L224.987 315.735h-.027l252.908-108.126z"/><path fill="#f3edf2" d="M477.868 207.632L225.014 315.735h-.027L477.868 207.62z"/><path fill="#f4eef2" d="M477.868 207.644L225.041 315.735h-.027l252.854-108.103z"/><path fill="#f5eef2" d="M477.868 207.655l-252.8 108.08h-.027l252.827-108.091z"/><path fill="#f6eff2" d="M477.868 207.667L225.095 315.735h-.027l252.8-108.08z"/><path fill="#f7eff2" d="M477.868 207.679L225.123 315.735h-.028l252.773-108.068z"/><path fill="#f8f0f2" d="M477.868 207.69L225.15 315.735h-.027l252.745-108.056z"/><path fill="#f9f0f2" d="M477.868 207.702L225.177 315.735h-.027L477.868 207.69z"/><path fill="#faf1f2" d="M477.868 207.713L225.204 315.735h-.027l252.691-108.033z"/><path fill="#fbf1f2" d="M477.868 207.725l-252.637 108.01h-.027l252.664-108.022z"/><path fill="#fcf2f2" d="M477.868 207.737l-252.61 107.998h-.027l252.637-108.01z"/><path fill="#fdf2f2" d="M477.868 207.748L225.286 315.735h-.028l252.61-107.998z"/><path fill="#fef3f2" d="M477.868 207.76L225.313 315.735h-.027l252.582-107.987z"/><path fill="#fff3f2" d="M477.868 207.772L225.34 315.735h-.027L477.868 207.76zM477.868 255.629L337.28 315.735H225.34l252.528-107.963z"/><path fill="#fff3f2" d="M477.868 263.504l-122.17 52.231H337.28l140.588-60.106zM477.868 263.515l-122.143 52.22h-.027l122.17-52.231z"/><path fill="#fef3f2" d="M477.868 263.527l-122.116 52.208h-.027l122.143-52.22z"/><path fill="#fdf2f2" d="M477.868 263.538l-122.089 52.197h-.027l122.116-52.208z"/><path fill="#fcf2f2" d="M477.868 263.55l-122.061 52.185h-.028l122.089-52.197z"/><path fill="#fbf1f2" d="M477.868 263.562l-122.034 52.173h-.027l122.061-52.185z"/><path fill="#faf1f2" d="M477.868 263.573l-122.007 52.162h-.027l122.034-52.173z"/><path fill="#f9f0f2" d="M477.868 263.585l-121.98 52.15h-.027l122.007-52.162z"/><path fill="#f8f0f2" d="M477.868 263.596l-121.953 52.139h-.027l121.98-52.15z"/><path fill="#f7eff2" d="M477.868 263.608l-121.925 52.127h-.028l121.953-52.139z"/><path fill="#f6eff2" d="M477.868 263.62L355.97 315.735h-.027l121.925-52.127z"/><path fill="#f5eef2" d="M477.868 263.631l-121.871 52.104h-.027l121.898-52.115z"/><path fill="#f4eef2" d="M477.868 263.643l-121.844 52.092h-.027l121.871-52.104z"/><path fill="#f3edf2" d="M477.868 263.655l-121.817 52.08h-.027l121.844-52.092z"/><path fill="#f2edf2" d="M477.868 263.666l-121.79 52.069h-.027l121.817-52.08z"/><path fill="#f1ecf2" d="M477.868 263.678l-121.762 52.057h-.028l121.79-52.069z"/><path fill="#f0ecf2" d="M477.868 263.689l-121.735 52.046h-.027l121.762-52.057z"/><path fill="#efecf2" d="M477.868 263.701L356.16 315.735h-.027l121.735-52.046z"/><path fill="#eeebf2" d="M477.868 263.713l-121.681 52.022h-.027l121.708-52.034z"/><path fill="#edebf2" d="M477.868 263.724l-121.654 52.011h-.027l121.681-52.022z"/><path fill="#eceaf2" d="M477.868 263.736l-121.626 51.999h-.028l121.654-52.011z"/><path fill="#ebeaf2" d="M477.868 263.748l-121.599 51.987h-.027l121.626-51.999z"/><path fill="#eae9f2" d="M477.868 263.759l-121.572 51.976h-.027l121.599-51.987z"/><path fill="#e8e9f2" d="M477.868 263.771l-121.545 51.964h-.027l121.572-51.976z"/><path fill="#e7e8f2" d="M477.868 263.782L356.35 315.735h-.027l121.545-51.964z"/><path fill="#e6e8f2" d="M477.868 263.794l-121.491 51.941h-.027l121.518-51.953z"/><path fill="#e5e7f2" d="M477.868 263.806l-121.463 51.929h-.028l121.491-51.941z"/><path fill="#e4e7f2" d="M477.868 263.817l-121.436 51.918h-.027l121.463-51.929z"/><path fill="#e3e6f2" d="M477.868 263.829l-121.409 51.906h-.027l121.436-51.918z"/><path fill="#e2e6f2" d="M477.868 263.841l-121.382 51.894h-.027l121.409-51.906z"/><path fill="#e1e6f2" d="M477.868 263.852l-121.355 51.883h-.027l121.382-51.894z"/><path fill="#e0e5f2" d="M477.868 263.864L356.54 315.735h-.027l121.355-51.883z"/><path fill="#dfe5f2" d="M477.868 263.875l-121.3 51.86h-.028l121.328-51.871z"/><path fill="#dee4f2" d="M477.868 263.887l-121.273 51.848h-.027l121.3-51.86z"/><path fill="#dde4f2" d="M477.868 263.899l-121.246 51.836h-.027l121.273-51.848z"/><path fill="#dce3f2" d="M477.868 263.91l-121.219 51.825h-.027l121.246-51.836z"/><path fill="#dbe3f2" d="M477.868 263.922l-121.192 51.813h-.027l121.219-51.825z"/><path fill="#dae2f2" d="M477.868 263.934l-121.164 51.801h-.028l121.192-51.813z"/><path fill="#d9e2f2" d="M477.868 263.945l-121.137 51.79h-.027l121.164-51.801z"/><path fill="#d8e1f2" d="M477.868 263.957l-121.11 51.778h-.027l121.137-51.79z"/><g><path fill="#d7e1f2" d="M477.868 263.968l-121.083 51.767h-.027l121.11-51.778z"/></g><g><path fill="#d6e0f2" d="M477.868 263.98l-121.056 51.755h-.027l121.083-51.767z"/></g><g><path fill="#d5e0f2" d="M477.868 263.992l-121.029 51.743h-.027l121.056-51.755z"/></g><g><path fill="#d4dff2" d="M477.868 264.003l-121.001 51.732h-.028l121.029-51.743z"/></g><g><path fill="#d3dff2" d="M477.868 264.015l-120.974 51.72h-.027l121.001-51.732z"/><path fill="#d3dff2" d="M356.894 315.735l120.974-51.72v51.72z"/></g><path d="M64.001 25.601h-25.6c-16.495 0-29.867 13.372-29.867 29.867v260.267h25.6V55.468c0-16.495 13.372-29.867 29.867-29.867z" fill="#fff"/><path d="M473.601 25.601h-25.6c16.495 0 29.867 13.372 29.867 29.867v260.267h25.6V55.468a29.868 29.868 0 0 0-29.867-29.867z" fill="#7facfa"/><path d="M34.134 315.734h443.733v38.4c.001 16.495-13.371 29.867-29.866 29.867h-384c-16.495 0-29.867-13.372-29.867-29.867v-38.4z" fill="#e3e7f2"/><path d="M34.134 354.134v-38.4h-25.6v38.4c0 16.495 13.372 29.867 29.867 29.867h25.6c-16.495 0-29.867-13.372-29.867-29.867z" fill="#fff"/><path d="M477.868 315.734v38.4c0 16.495-13.372 29.867-29.867 29.867h25.6a29.868 29.868 0 0 0 29.867-29.867v-38.4h-25.6z" fill="#7facfa"/><g fill="#428dff"><path d="M503.468 324.268H8.534A8.53 8.53 0 0 1 0 315.734v-34.133a8.533 8.533 0 0 1 17.066 0v25.6h477.867V55.468c-.012-11.777-9.556-21.321-21.333-21.333H38.401c-11.777.012-21.321 9.556-21.333 21.333v157.867a8.533 8.533 0 1 1-17.067-.001V55.468c.023-21.198 17.202-38.377 38.4-38.4h435.2c21.198.023 38.377 17.202 38.4 38.4v260.267a8.53 8.53 0 0 1-8.533 8.533z"/><circle cx="8.534" cy="247.47" r="8.533"/></g><circle cx="149.33" cy="166.4" r="89.6" fill="#a4c2f7"/><path d="M145.185 76.895l-.117.122v93.337c0 .174.141.314.314.314h93.337l.122-.117a89.606 89.606 0 0 0-93.656-93.656z" fill="#e3e7f2"/><g fill="#428dff"><path d="M358.401 494.934h-204.8a8.53 8.53 0 0 1-8.534-8.534c.028-23.553 19.114-42.639 42.667-42.667h136.533c23.553.028 42.639 19.114 42.667 42.667a8.53 8.53 0 0 1-8.533 8.534zm-194.808-17.066H348.41a25.655 25.655 0 0 0-24.142-17.067H187.734a25.65 25.65 0 0 0-24.141 17.067z"/><path d="M315.734 460.801H196.268a8.532 8.532 0 0 1-8.275-10.604l17.067-68.267a8.53 8.53 0 0 1 8.275-6.462h85.333a8.532 8.532 0 0 1 8.275 6.462l17.067 68.267a8.533 8.533 0 0 1-8.276 10.604zm-108.533-17.067h97.6l-12.8-51.2h-72l-12.8 51.2z"/><path d="M473.601 392.534h-435.2c-21.198-.023-38.377-17.202-38.4-38.4v-38.4a8.53 8.53 0 0 1 8.534-8.534h494.933a8.53 8.53 0 0 1 8.534 8.534v38.4c-.024 21.199-17.203 38.377-38.401 38.4zM17.068 324.268v29.867c.012 11.777 9.556 21.321 21.333 21.333h435.2c11.777-.012 21.321-9.556 21.333-21.333v-29.867H17.068zM290.134 290.134a8.53 8.53 0 0 1-8.534-8.534v-25.599a8.533 8.533 0 0 1 17.066 0v25.6a8.53 8.53 0 0 1-8.532 8.533zM324.268 290.134a8.53 8.53 0 0 1-8.534-8.534v-59.733a8.533 8.533 0 0 1 17.066 0v59.734a8.53 8.53 0 0 1-8.532 8.533zM358.401 290.134a8.53 8.53 0 0 1-8.534-8.534v-42.667a8.533 8.533 0 0 1 17.066 0v42.668a8.53 8.53 0 0 1-8.532 8.533zM392.534 290.134A8.53 8.53 0 0 1 384 281.6V179.201a8.533 8.533 0 0 1 17.066 0v102.4a8.53 8.53 0 0 1-8.532 8.533zM426.668 290.134a8.53 8.53 0 0 1-8.534-8.534v-68.267c0-4.713 3.82-8.533 8.533-8.533s8.533 3.82 8.533 8.533v68.268a8.53 8.53 0 0 1-8.532 8.533zM149.334 264.534c-54.198 0-98.133-43.936-98.133-98.133s43.936-98.133 98.133-98.133 98.133 43.936 98.133 98.133c-.061 54.172-43.961 98.072-98.133 98.133zm0-179.2c-44.772 0-81.067 36.295-81.067 81.067s36.295 81.067 81.067 81.067 81.067-36.295 81.067-81.067c-.051-44.751-36.316-81.016-81.067-81.067z"/><path d="M238.718 179.201h-93.333a9.077 9.077 0 0 1-8.85-8.846V77.018a8.554 8.554 0 0 1 2.217-5.742 8.97 8.97 0 0 1 6.05-2.908 98.153 98.153 0 0 1 102.567 102.567 8.523 8.523 0 0 1-2.758 5.908 8.983 8.983 0 0 1-5.893 2.358zm-85.117-17.067h76.7c-2.197-41.415-35.285-74.501-76.7-76.696v76.696z"/><path d="M208.284 242.413a8.502 8.502 0 0 1-6.033-2.5l-63.216-63.212a8.533 8.533 0 0 1 12.066-12.066l63.217 63.212a8.533 8.533 0 0 1-6.034 14.566zM384.001 119.468h-68.267a8.533 8.533 0 0 1 0-17.066h68.267a8.533 8.533 0 0 1 0 17.066zM426.668 119.468a8.979 8.979 0 0 1-6.059-2.475 14.455 14.455 0 0 1-1.025-1.279 6.302 6.302 0 0 1-.767-1.538 5.618 5.618 0 0 1-.517-1.537 8.828 8.828 0 0 1 0-3.413 5.53 5.53 0 0 1 .517-1.537 6.34 6.34 0 0 1 .767-1.533c.315-.447.657-.875 1.025-1.28a8.933 8.933 0 0 1 12.117 0 8.653 8.653 0 0 1 0 12.117 9.002 9.002 0 0 1-6.058 2.475zM426.668 76.801h-25.6a8.533 8.533 0 0 1 0-17.066h25.6a8.533 8.533 0 0 1 0 17.066zM332.801 76.801h-17.067a8.533 8.533 0 0 1 0-17.066h17.067a8.533 8.533 0 0 1 0 17.066zM366.934 76.801a8.57 8.57 0 0 1-6.059-14.592 8.789 8.789 0 0 1 2.817-1.796 8.523 8.523 0 0 1 9.301 1.796 8.533 8.533 0 0 1-6.059 14.592z"/></g></svg>